<mxfile host="Electron" modified="2023-07-28T10:54:11.815Z" agent="Mozilla/5.0 (Macintosh; Intel Mac OS X 10_15_7) AppleWebKit/537.36 (KHTML, like Gecko) draw.io/21.6.5 Chrome/114.0.5735.243 Electron/25.3.1 Safari/537.36" etag="oBbZckM1IW8ldfBxa7u0" version="21.6.5" type="device">
  <diagram id="lu0qVTgI4R-YYrcZuvKL" name="Strona-1">
    <mxGraphModel dx="2233" dy="1082" grid="0" gridSize="10" guides="1" tooltips="1" connect="1" arrows="1" fold="1" page="0" pageScale="1" pageWidth="827" pageHeight="1169" math="0" shadow="0">
      <root>
        <mxCell id="0" />
        <mxCell id="1" parent="0" />
        <mxCell id="O6QXdMl-xdjii7lvghlq-1" value="&lt;font style=&quot;font-size: 15px;&quot;&gt;Reconcile&lt;/font&gt;" style="rounded=1;whiteSpace=wrap;html=1;fontColor=#333333;fillColor=#f0f6ff;strokeColor=#f0f6ff;labelPosition=center;verticalLabelPosition=top;align=center;verticalAlign=bottom;fontStyle=1" parent="1" vertex="1">
          <mxGeometry x="-857" y="430" width="1089" height="1540" as="geometry" />
        </mxCell>
        <mxCell id="O6QXdMl-xdjii7lvghlq-54" value="" style="edgeStyle=orthogonalEdgeStyle;rounded=1;orthogonalLoop=1;jettySize=auto;html=1;fontSize=10;fontColor=#000000;" parent="1" source="9s4blzP_cOgsW_nrXSzR-4" target="9s4blzP_cOgsW_nrXSzR-12" edge="1">
          <mxGeometry relative="1" as="geometry" />
        </mxCell>
        <mxCell id="9s4blzP_cOgsW_nrXSzR-4" value="CR" style="ellipse;whiteSpace=wrap;html=1;aspect=fixed;fillColor=#FFFFFF;strokeColor=#666666;" parent="1" vertex="1">
          <mxGeometry x="-624" y="344" width="66" height="66" as="geometry" />
        </mxCell>
        <mxCell id="9s4blzP_cOgsW_nrXSzR-6" value="&lt;font style=&quot;font-size: 12px;&quot;&gt;delete&lt;/font&gt;" style="endArrow=classic;html=1;rounded=1;labelPosition=center;verticalLabelPosition=top;align=center;verticalAlign=bottom;strokeColor=#666666;" parent="1" edge="1">
          <mxGeometry width="50" height="50" relative="1" as="geometry">
            <mxPoint x="-693" y="376.66" as="sourcePoint" />
            <mxPoint x="-624" y="376.66" as="targetPoint" />
          </mxGeometry>
        </mxCell>
        <mxCell id="9s4blzP_cOgsW_nrXSzR-7" value="&lt;i style=&quot;font-size: 12px;&quot;&gt;set&lt;br&gt;DeletionTimestamp&lt;/i&gt;" style="edgeStyle=orthogonalEdgeStyle;rounded=1;orthogonalLoop=1;jettySize=auto;html=1;entryX=0.5;entryY=0;entryDx=0;entryDy=0;labelPosition=center;verticalLabelPosition=top;align=center;verticalAlign=bottom;strokeColor=#666666;" parent="1" source="9s4blzP_cOgsW_nrXSzR-4" target="9s4blzP_cOgsW_nrXSzR-4" edge="1">
          <mxGeometry relative="1" as="geometry">
            <mxPoint x="-553" y="347" as="targetPoint" />
            <Array as="points">
              <mxPoint x="-623" y="305" />
              <mxPoint x="-591" y="305" />
            </Array>
          </mxGeometry>
        </mxCell>
        <mxCell id="9s4blzP_cOgsW_nrXSzR-12" value="&lt;font style=&quot;font-size: 13px;&quot;&gt;&lt;b&gt;Hard delete&lt;/b&gt;&lt;/font&gt;" style="rounded=1;whiteSpace=wrap;html=1;labelPosition=center;verticalLabelPosition=middle;align=center;verticalAlign=top;strokeColor=#def2dd;fillColor=#def2dd;" parent="1" vertex="1">
          <mxGeometry x="-711" y="462" width="240" height="694" as="geometry" />
        </mxCell>
        <mxCell id="9s4blzP_cOgsW_nrXSzR-21" value="&lt;font style=&quot;font-size: 13px;&quot;&gt;&lt;b&gt;Soft delete&lt;/b&gt;&lt;/font&gt;" style="rounded=1;whiteSpace=wrap;html=1;verticalAlign=top;strokeColor=#def2dd;fillColor=#def2dd;" parent="1" vertex="1">
          <mxGeometry x="-350" y="462" width="240" height="1370" as="geometry" />
        </mxCell>
        <mxCell id="O6QXdMl-xdjii7lvghlq-8" value="yes" style="edgeStyle=orthogonalEdgeStyle;rounded=1;orthogonalLoop=1;jettySize=auto;html=1;fontSize=12;fontColor=#000000;exitX=1;exitY=0.5;exitDx=0;exitDy=0;strokeColor=#666666;verticalAlign=bottom;" parent="1" source="O6QXdMl-xdjii7lvghlq-2" target="9s4blzP_cOgsW_nrXSzR-21" edge="1">
          <mxGeometry relative="1" as="geometry">
            <Array as="points">
              <mxPoint x="-405" y="779" />
              <mxPoint x="-405" y="779" />
            </Array>
          </mxGeometry>
        </mxCell>
        <mxCell id="O6QXdMl-xdjii7lvghlq-14" value="no" style="edgeStyle=orthogonalEdgeStyle;rounded=1;orthogonalLoop=1;jettySize=auto;html=1;fontSize=12;fontColor=#000000;labelPosition=right;verticalLabelPosition=middle;align=left;verticalAlign=bottom;" parent="1" source="O6QXdMl-xdjii7lvghlq-2" target="O6QXdMl-xdjii7lvghlq-10" edge="1">
          <mxGeometry relative="1" as="geometry" />
        </mxCell>
        <mxCell id="O6QXdMl-xdjii7lvghlq-2" value="&lt;font style=&quot;font-size: 12px;&quot;&gt;error &lt;br&gt;from deleting&lt;br&gt;SBs, SIs?&lt;/font&gt;" style="rhombus;whiteSpace=wrap;html=1;fontSize=11;aspect=fixed;strokeColor=#666666;" parent="1" vertex="1">
          <mxGeometry x="-646" y="724" width="110" height="110" as="geometry" />
        </mxCell>
        <mxCell id="O6QXdMl-xdjii7lvghlq-6" value="" style="edgeStyle=orthogonalEdgeStyle;rounded=1;orthogonalLoop=1;jettySize=auto;html=1;fontSize=12;fontColor=#FF0000;" parent="1" source="O6QXdMl-xdjii7lvghlq-3" target="O6QXdMl-xdjii7lvghlq-5" edge="1">
          <mxGeometry relative="1" as="geometry" />
        </mxCell>
        <mxCell id="mvj4oXj6JV9amYfgUnpZ-20" value="" style="edgeStyle=orthogonalEdgeStyle;rounded=1;orthogonalLoop=1;jettySize=auto;html=1;strokeColor=#666666;" parent="1" edge="1">
          <mxGeometry relative="1" as="geometry">
            <mxPoint x="-471" y="550" as="sourcePoint" />
            <mxPoint x="-350" y="550" as="targetPoint" />
          </mxGeometry>
        </mxCell>
        <mxCell id="mvj4oXj6JV9amYfgUnpZ-23" value="timeout" style="edgeLabel;html=1;align=center;verticalAlign=bottom;resizable=0;points=[];fontSize=12;" parent="mvj4oXj6JV9amYfgUnpZ-20" vertex="1" connectable="0">
          <mxGeometry x="-0.0327" y="1" relative="1" as="geometry">
            <mxPoint as="offset" />
          </mxGeometry>
        </mxCell>
        <mxCell id="O6QXdMl-xdjii7lvghlq-3" value="try to delete ServiceBindings&lt;br&gt;(SBs)" style="rounded=1;whiteSpace=wrap;html=1;strokeColor=#666666;" parent="1" vertex="1">
          <mxGeometry x="-651" y="520" width="120" height="60" as="geometry" />
        </mxCell>
        <mxCell id="O6QXdMl-xdjii7lvghlq-7" value="" style="edgeStyle=orthogonalEdgeStyle;rounded=1;orthogonalLoop=1;jettySize=auto;html=1;fontSize=12;fontColor=#FF0000;" parent="1" source="O6QXdMl-xdjii7lvghlq-5" target="O6QXdMl-xdjii7lvghlq-2" edge="1">
          <mxGeometry relative="1" as="geometry" />
        </mxCell>
        <mxCell id="O6QXdMl-xdjii7lvghlq-5" value="try to delete ServiceInstances&lt;br&gt;(SIs)" style="rounded=1;whiteSpace=wrap;html=1;strokeColor=#666666;" parent="1" vertex="1">
          <mxGeometry x="-651" y="618" width="120" height="60" as="geometry" />
        </mxCell>
        <mxCell id="O6QXdMl-xdjii7lvghlq-15" value="" style="edgeStyle=orthogonalEdgeStyle;rounded=1;orthogonalLoop=1;jettySize=auto;html=1;fontSize=12;fontColor=#000000;" parent="1" source="O6QXdMl-xdjii7lvghlq-10" target="O6QXdMl-xdjii7lvghlq-13" edge="1">
          <mxGeometry relative="1" as="geometry" />
        </mxCell>
        <mxCell id="O6QXdMl-xdjii7lvghlq-10" value="check leftover&lt;br&gt;SBs, SIs" style="rounded=1;whiteSpace=wrap;html=1;strokeColor=#666666;" parent="1" vertex="1">
          <mxGeometry x="-651" y="897" width="120" height="60" as="geometry" />
        </mxCell>
        <mxCell id="O6QXdMl-xdjii7lvghlq-17" value="yes" style="edgeStyle=orthogonalEdgeStyle;rounded=1;orthogonalLoop=1;jettySize=auto;html=1;entryX=-0.007;entryY=0.434;entryDx=0;entryDy=0;entryPerimeter=0;fontSize=12;fontColor=#000000;strokeColor=#666666;verticalAlign=bottom;" parent="1" source="O6QXdMl-xdjii7lvghlq-13" target="9s4blzP_cOgsW_nrXSzR-21" edge="1">
          <mxGeometry relative="1" as="geometry" />
        </mxCell>
        <mxCell id="O6QXdMl-xdjii7lvghlq-19" value="no" style="edgeStyle=orthogonalEdgeStyle;rounded=1;orthogonalLoop=1;jettySize=auto;html=1;fontSize=12;fontColor=#000000;strokeColor=#666666;labelPosition=right;verticalLabelPosition=middle;align=left;verticalAlign=bottom;" parent="1" source="O6QXdMl-xdjii7lvghlq-13" target="O6QXdMl-xdjii7lvghlq-18" edge="1">
          <mxGeometry relative="1" as="geometry" />
        </mxCell>
        <mxCell id="O6QXdMl-xdjii7lvghlq-13" value="resources exist?" style="rhombus;whiteSpace=wrap;html=1;fontSize=11;aspect=fixed;strokeColor=#666666;" parent="1" vertex="1">
          <mxGeometry x="-646" y="1002" width="110" height="110" as="geometry" />
        </mxCell>
        <mxCell id="O6QXdMl-xdjii7lvghlq-59" value="" style="edgeStyle=orthogonalEdgeStyle;rounded=1;orthogonalLoop=1;jettySize=auto;html=1;fontSize=10;fontColor=#000000;strokeColor=#666666;" parent="1" source="O6QXdMl-xdjii7lvghlq-18" target="O6QXdMl-xdjii7lvghlq-56" edge="1">
          <mxGeometry relative="1" as="geometry" />
        </mxCell>
        <mxCell id="O6QXdMl-xdjii7lvghlq-18" value="delete module resources" style="rounded=1;whiteSpace=wrap;html=1;strokeColor=#666666;" parent="1" vertex="1">
          <mxGeometry x="-651" y="1730" width="120" height="60" as="geometry" />
        </mxCell>
        <mxCell id="O6QXdMl-xdjii7lvghlq-23" value="" style="edgeStyle=orthogonalEdgeStyle;rounded=1;orthogonalLoop=1;jettySize=auto;html=1;fontSize=12;fontColor=#000000;" parent="1" source="O6QXdMl-xdjii7lvghlq-21" target="O6QXdMl-xdjii7lvghlq-22" edge="1">
          <mxGeometry relative="1" as="geometry" />
        </mxCell>
        <mxCell id="O6QXdMl-xdjii7lvghlq-21" value="delete deployment &amp;amp; webhooks" style="rounded=1;whiteSpace=wrap;html=1;strokeColor=#666666;" parent="1" vertex="1">
          <mxGeometry x="-290" y="520" width="120" height="60" as="geometry" />
        </mxCell>
        <mxCell id="O6QXdMl-xdjii7lvghlq-25" value="&lt;font style=&quot;font-size: 12px;&quot;&gt;yes&lt;/font&gt;" style="edgeStyle=orthogonalEdgeStyle;rounded=1;orthogonalLoop=1;jettySize=auto;html=1;fontSize=10;fontColor=#000000;entryX=0;entryY=0.5;entryDx=0;entryDy=0;strokeColor=#666666;verticalAlign=bottom;" parent="1" source="O6QXdMl-xdjii7lvghlq-22" target="O6QXdMl-xdjii7lvghlq-24" edge="1">
          <mxGeometry relative="1" as="geometry">
            <mxPoint x="-95" y="679" as="targetPoint" />
          </mxGeometry>
        </mxCell>
        <mxCell id="O6QXdMl-xdjii7lvghlq-27" value="no" style="edgeStyle=orthogonalEdgeStyle;rounded=1;orthogonalLoop=1;jettySize=auto;html=1;fontSize=12;fontColor=#000000;verticalAlign=middle;labelPosition=right;verticalLabelPosition=middle;align=left;" parent="1" source="O6QXdMl-xdjii7lvghlq-22" target="O6QXdMl-xdjii7lvghlq-26" edge="1">
          <mxGeometry relative="1" as="geometry" />
        </mxCell>
        <mxCell id="O6QXdMl-xdjii7lvghlq-22" value="&lt;font style=&quot;font-size: 12px;&quot;&gt;error from&lt;br&gt;deleting?&lt;/font&gt;" style="rhombus;whiteSpace=wrap;html=1;fontSize=11;aspect=fixed;strokeColor=#666666;" parent="1" vertex="1">
          <mxGeometry x="-285" y="624" width="110" height="110" as="geometry" />
        </mxCell>
        <mxCell id="O6QXdMl-xdjii7lvghlq-78" value="error" style="edgeStyle=orthogonalEdgeStyle;rounded=1;orthogonalLoop=1;jettySize=auto;html=1;fontSize=12;fontColor=#FF0000;endArrow=none;endFill=0;labelPosition=center;verticalLabelPosition=top;align=center;verticalAlign=bottom;strokeColor=#666666;" parent="1" source="O6QXdMl-xdjii7lvghlq-24" edge="1">
          <mxGeometry relative="1" as="geometry">
            <mxPoint x="154" y="679" as="targetPoint" />
          </mxGeometry>
        </mxCell>
        <mxCell id="O6QXdMl-xdjii7lvghlq-24" value="throw deprovisioning error" style="rounded=1;whiteSpace=wrap;html=1;strokeColor=#666666;" parent="1" vertex="1">
          <mxGeometry x="-42" y="649" width="120" height="60" as="geometry" />
        </mxCell>
        <mxCell id="O6QXdMl-xdjii7lvghlq-29" value="" style="edgeStyle=orthogonalEdgeStyle;rounded=1;orthogonalLoop=1;jettySize=auto;html=1;fontSize=10;fontColor=#000000;" parent="1" source="O6QXdMl-xdjii7lvghlq-26" target="O6QXdMl-xdjii7lvghlq-28" edge="1">
          <mxGeometry relative="1" as="geometry" />
        </mxCell>
        <mxCell id="O6QXdMl-xdjii7lvghlq-26" value="remove finalizers from SBs and delete related Secrets" style="rounded=1;whiteSpace=wrap;html=1;strokeColor=#666666;" parent="1" vertex="1">
          <mxGeometry x="-290" y="779" width="120" height="60" as="geometry" />
        </mxCell>
        <mxCell id="O6QXdMl-xdjii7lvghlq-33" value="No" style="edgeStyle=orthogonalEdgeStyle;rounded=1;orthogonalLoop=1;jettySize=auto;html=1;fontSize=12;fontColor=#000000;verticalAlign=middle;labelPosition=right;verticalLabelPosition=middle;align=left;" parent="1" source="O6QXdMl-xdjii7lvghlq-28" target="O6QXdMl-xdjii7lvghlq-32" edge="1">
          <mxGeometry relative="1" as="geometry" />
        </mxCell>
        <mxCell id="O6QXdMl-xdjii7lvghlq-37" value="&lt;font style=&quot;font-size: 12px;&quot;&gt;yes&lt;/font&gt;" style="edgeStyle=orthogonalEdgeStyle;rounded=1;orthogonalLoop=1;jettySize=auto;html=1;entryX=0;entryY=0.5;entryDx=0;entryDy=0;fontSize=10;fontColor=#000000;strokeColor=#666666;verticalAlign=bottom;" parent="1" source="O6QXdMl-xdjii7lvghlq-28" target="O6QXdMl-xdjii7lvghlq-35" edge="1">
          <mxGeometry relative="1" as="geometry" />
        </mxCell>
        <mxCell id="O6QXdMl-xdjii7lvghlq-28" value="&lt;font style=&quot;font-size: 12px;&quot;&gt;error from operations?&lt;/font&gt;" style="rhombus;whiteSpace=wrap;html=1;fontSize=11;aspect=fixed;strokeColor=#666666;" parent="1" vertex="1">
          <mxGeometry x="-285" y="893" width="110" height="110" as="geometry" />
        </mxCell>
        <mxCell id="O6QXdMl-xdjii7lvghlq-38" value="" style="edgeStyle=orthogonalEdgeStyle;rounded=1;orthogonalLoop=1;jettySize=auto;html=1;fontSize=10;fontColor=#000000;" parent="1" source="O6QXdMl-xdjii7lvghlq-32" target="O6QXdMl-xdjii7lvghlq-34" edge="1">
          <mxGeometry relative="1" as="geometry" />
        </mxCell>
        <mxCell id="O6QXdMl-xdjii7lvghlq-32" value="check leftover&lt;br&gt;SBs" style="rounded=1;whiteSpace=wrap;html=1;strokeColor=#666666;" parent="1" vertex="1">
          <mxGeometry x="-290" y="1058" width="120" height="60" as="geometry" />
        </mxCell>
        <mxCell id="O6QXdMl-xdjii7lvghlq-40" value="&lt;font style=&quot;font-size: 12px;&quot;&gt;yes&lt;/font&gt;" style="edgeStyle=orthogonalEdgeStyle;rounded=1;orthogonalLoop=1;jettySize=auto;html=1;entryX=0;entryY=0.5;entryDx=0;entryDy=0;fontSize=10;fontColor=#000000;strokeColor=#666666;verticalAlign=bottom;" parent="1" source="O6QXdMl-xdjii7lvghlq-34" target="O6QXdMl-xdjii7lvghlq-39" edge="1">
          <mxGeometry relative="1" as="geometry" />
        </mxCell>
        <mxCell id="O6QXdMl-xdjii7lvghlq-48" value="no" style="edgeStyle=orthogonalEdgeStyle;rounded=1;orthogonalLoop=1;jettySize=auto;html=1;fontSize=12;fontColor=#000000;verticalAlign=middle;labelPosition=right;verticalLabelPosition=middle;align=left;" parent="1" source="O6QXdMl-xdjii7lvghlq-34" target="O6QXdMl-xdjii7lvghlq-42" edge="1">
          <mxGeometry relative="1" as="geometry" />
        </mxCell>
        <mxCell id="O6QXdMl-xdjii7lvghlq-34" value="&lt;font style=&quot;font-size: 12px;&quot;&gt;resources exist?&lt;/font&gt;" style="rhombus;whiteSpace=wrap;html=1;fontSize=11;aspect=fixed;strokeColor=#666666;" parent="1" vertex="1">
          <mxGeometry x="-285" y="1164" width="110" height="110" as="geometry" />
        </mxCell>
        <mxCell id="O6QXdMl-xdjii7lvghlq-77" value="error" style="edgeStyle=orthogonalEdgeStyle;rounded=1;orthogonalLoop=1;jettySize=auto;html=1;fontSize=12;fontColor=#FF0000;endArrow=none;endFill=0;labelPosition=center;verticalLabelPosition=top;align=center;verticalAlign=bottom;strokeColor=#666666;" parent="1" source="O6QXdMl-xdjii7lvghlq-35" edge="1">
          <mxGeometry relative="1" as="geometry">
            <mxPoint x="153" y="948" as="targetPoint" />
          </mxGeometry>
        </mxCell>
        <mxCell id="O6QXdMl-xdjii7lvghlq-35" value="throw bindings deletion error" style="rounded=1;whiteSpace=wrap;html=1;strokeColor=#666666;" parent="1" vertex="1">
          <mxGeometry x="-36" y="918" width="120" height="60" as="geometry" />
        </mxCell>
        <mxCell id="O6QXdMl-xdjii7lvghlq-76" value="error" style="edgeStyle=orthogonalEdgeStyle;rounded=1;orthogonalLoop=1;jettySize=auto;html=1;fontSize=12;fontColor=#FF0000;endArrow=none;endFill=0;labelPosition=center;verticalLabelPosition=top;align=center;verticalAlign=bottom;strokeColor=#666666;" parent="1" source="O6QXdMl-xdjii7lvghlq-39" edge="1">
          <mxGeometry relative="1" as="geometry">
            <mxPoint x="153" y="1219" as="targetPoint" />
          </mxGeometry>
        </mxCell>
        <mxCell id="O6QXdMl-xdjii7lvghlq-39" value="throw bindings still exist error" style="rounded=1;whiteSpace=wrap;html=1;strokeColor=#666666;" parent="1" vertex="1">
          <mxGeometry x="-36" y="1189" width="120" height="60" as="geometry" />
        </mxCell>
        <mxCell id="O6QXdMl-xdjii7lvghlq-41" value="" style="edgeStyle=orthogonalEdgeStyle;rounded=1;orthogonalLoop=1;jettySize=auto;html=1;fontSize=10;fontColor=#000000;" parent="1" source="O6QXdMl-xdjii7lvghlq-42" target="O6QXdMl-xdjii7lvghlq-44" edge="1">
          <mxGeometry relative="1" as="geometry" />
        </mxCell>
        <mxCell id="O6QXdMl-xdjii7lvghlq-42" value="remove finalizers from SIs" style="rounded=1;whiteSpace=wrap;html=1;strokeColor=#666666;" parent="1" vertex="1">
          <mxGeometry x="-290" y="1320" width="120" height="60" as="geometry" />
        </mxCell>
        <mxCell id="O6QXdMl-xdjii7lvghlq-43" value="no" style="edgeStyle=orthogonalEdgeStyle;rounded=1;orthogonalLoop=1;jettySize=auto;html=1;fontSize=12;fontColor=#000000;verticalAlign=middle;labelPosition=right;verticalLabelPosition=middle;align=left;" parent="1" source="O6QXdMl-xdjii7lvghlq-44" target="O6QXdMl-xdjii7lvghlq-46" edge="1">
          <mxGeometry relative="1" as="geometry" />
        </mxCell>
        <mxCell id="O6QXdMl-xdjii7lvghlq-50" value="&lt;font style=&quot;font-size: 12px;&quot;&gt;yes&lt;/font&gt;" style="edgeStyle=orthogonalEdgeStyle;rounded=1;orthogonalLoop=1;jettySize=auto;html=1;fontSize=10;fontColor=#000000;entryX=0;entryY=0.5;entryDx=0;entryDy=0;strokeColor=#666666;verticalAlign=bottom;" parent="1" source="O6QXdMl-xdjii7lvghlq-44" target="O6QXdMl-xdjii7lvghlq-49" edge="1">
          <mxGeometry relative="1" as="geometry">
            <mxPoint x="-95" y="1489" as="targetPoint" />
          </mxGeometry>
        </mxCell>
        <mxCell id="O6QXdMl-xdjii7lvghlq-44" value="&lt;font style=&quot;font-size: 12px;&quot;&gt;error from operations?&lt;/font&gt;" style="rhombus;whiteSpace=wrap;html=1;fontSize=11;aspect=fixed;strokeColor=#666666;" parent="1" vertex="1">
          <mxGeometry x="-285" y="1434" width="110" height="110" as="geometry" />
        </mxCell>
        <mxCell id="O6QXdMl-xdjii7lvghlq-45" value="" style="edgeStyle=orthogonalEdgeStyle;rounded=1;orthogonalLoop=1;jettySize=auto;html=1;fontSize=10;fontColor=#000000;strokeColor=#666666;" parent="1" source="O6QXdMl-xdjii7lvghlq-46" target="O6QXdMl-xdjii7lvghlq-47" edge="1">
          <mxGeometry relative="1" as="geometry">
            <Array as="points">
              <mxPoint x="-230" y="1693" />
              <mxPoint x="-230" y="1693" />
            </Array>
          </mxGeometry>
        </mxCell>
        <mxCell id="O6QXdMl-xdjii7lvghlq-46" value="check leftover&lt;br&gt;SIs" style="rounded=1;whiteSpace=wrap;html=1;strokeColor=#666666;" parent="1" vertex="1">
          <mxGeometry x="-290" y="1599" width="120" height="60" as="geometry" />
        </mxCell>
        <mxCell id="O6QXdMl-xdjii7lvghlq-52" value="&lt;font style=&quot;font-size: 12px;&quot;&gt;yes&lt;/font&gt;" style="edgeStyle=orthogonalEdgeStyle;rounded=1;orthogonalLoop=1;jettySize=auto;html=1;fontSize=10;fontColor=#000000;entryX=0;entryY=0.5;entryDx=0;entryDy=0;strokeColor=#666666;verticalAlign=bottom;" parent="1" source="O6QXdMl-xdjii7lvghlq-47" target="O6QXdMl-xdjii7lvghlq-51" edge="1">
          <mxGeometry relative="1" as="geometry">
            <mxPoint x="-95" y="1760" as="targetPoint" />
          </mxGeometry>
        </mxCell>
        <mxCell id="O6QXdMl-xdjii7lvghlq-55" value="&lt;font style=&quot;font-size: 12px;&quot;&gt;no&lt;/font&gt;" style="edgeStyle=orthogonalEdgeStyle;rounded=1;orthogonalLoop=1;jettySize=auto;html=1;entryX=1;entryY=0.5;entryDx=0;entryDy=0;fontSize=10;fontColor=#000000;strokeColor=#666666;verticalAlign=bottom;" parent="1" source="O6QXdMl-xdjii7lvghlq-47" target="O6QXdMl-xdjii7lvghlq-18" edge="1">
          <mxGeometry relative="1" as="geometry" />
        </mxCell>
        <mxCell id="O6QXdMl-xdjii7lvghlq-47" value="&lt;font style=&quot;font-size: 12px;&quot;&gt;resources exist?&lt;/font&gt;" style="rhombus;whiteSpace=wrap;html=1;fontSize=11;aspect=fixed;strokeColor=#666666;" parent="1" vertex="1">
          <mxGeometry x="-285" y="1705" width="110" height="110" as="geometry" />
        </mxCell>
        <mxCell id="O6QXdMl-xdjii7lvghlq-75" value="error" style="edgeStyle=orthogonalEdgeStyle;rounded=1;orthogonalLoop=1;jettySize=auto;html=1;fontSize=12;fontColor=#FF0000;endArrow=none;endFill=0;labelPosition=center;verticalLabelPosition=top;align=center;verticalAlign=bottom;strokeColor=#666666;" parent="1" source="O6QXdMl-xdjii7lvghlq-49" edge="1">
          <mxGeometry relative="1" as="geometry">
            <mxPoint x="154" y="1489" as="targetPoint" />
          </mxGeometry>
        </mxCell>
        <mxCell id="O6QXdMl-xdjii7lvghlq-49" value="throw instances deletion error" style="rounded=1;whiteSpace=wrap;html=1;strokeColor=#666666;" parent="1" vertex="1">
          <mxGeometry x="-36" y="1459" width="120" height="60" as="geometry" />
        </mxCell>
        <mxCell id="O6QXdMl-xdjii7lvghlq-74" value="error" style="edgeStyle=orthogonalEdgeStyle;orthogonalLoop=1;jettySize=auto;html=1;fontSize=12;fontColor=#FF0000;endArrow=none;endFill=0;labelPosition=center;verticalLabelPosition=top;align=center;verticalAlign=bottom;strokeColor=#666666;rounded=1;" parent="1" source="O6QXdMl-xdjii7lvghlq-51" edge="1">
          <mxGeometry relative="1" as="geometry">
            <mxPoint x="153" y="1760" as="targetPoint" />
          </mxGeometry>
        </mxCell>
        <mxCell id="O6QXdMl-xdjii7lvghlq-51" value="throw instances still exist error" style="rounded=1;whiteSpace=wrap;html=1;strokeColor=#666666;" parent="1" vertex="1">
          <mxGeometry x="-36" y="1730" width="120" height="60" as="geometry" />
        </mxCell>
        <mxCell id="O6QXdMl-xdjii7lvghlq-53" value="CR deleted" style="ellipse;whiteSpace=wrap;html=1;fillColor=#FFFFFF;strokeColor=#000000;" parent="1" vertex="1">
          <mxGeometry x="-636" y="2017" width="90" height="45" as="geometry" />
        </mxCell>
        <mxCell id="O6QXdMl-xdjii7lvghlq-66" value="&lt;font style=&quot;font-size: 12px;&quot;&gt;no&lt;/font&gt;" style="edgeStyle=orthogonalEdgeStyle;rounded=1;orthogonalLoop=1;jettySize=auto;html=1;fontSize=10;fontColor=#000000;strokeColor=#666666;labelPosition=right;verticalLabelPosition=middle;align=left;verticalAlign=bottom;" parent="1" source="O6QXdMl-xdjii7lvghlq-56" target="O6QXdMl-xdjii7lvghlq-53" edge="1">
          <mxGeometry relative="1" as="geometry" />
        </mxCell>
        <mxCell id="O6QXdMl-xdjii7lvghlq-67" value="&lt;font style=&quot;font-size: 12px;&quot;&gt;yes&lt;/font&gt;" style="edgeStyle=orthogonalEdgeStyle;rounded=1;orthogonalLoop=1;jettySize=auto;html=1;fontSize=10;fontColor=#000000;strokeColor=#666666;verticalAlign=bottom;" parent="1" source="O6QXdMl-xdjii7lvghlq-56" target="O6QXdMl-xdjii7lvghlq-61" edge="1">
          <mxGeometry relative="1" as="geometry" />
        </mxCell>
        <mxCell id="O6QXdMl-xdjii7lvghlq-56" value="&lt;font style=&quot;font-size: 12px;&quot;&gt;error from&lt;br&gt;deleting?&lt;/font&gt;" style="rhombus;whiteSpace=wrap;html=1;fontSize=11;aspect=fixed;strokeColor=#666666;" parent="1" vertex="1">
          <mxGeometry x="-646" y="1841" width="110" height="110" as="geometry" />
        </mxCell>
        <mxCell id="mvj4oXj6JV9amYfgUnpZ-9" style="edgeStyle=elbowEdgeStyle;rounded=1;orthogonalLoop=1;jettySize=auto;html=1;endArrow=classic;endFill=1;strokeColor=#666666;entryX=1;entryY=0.5;entryDx=0;entryDy=0;verticalAlign=bottom;" parent="1" source="O6QXdMl-xdjii7lvghlq-61" target="9s4blzP_cOgsW_nrXSzR-4" edge="1">
          <mxGeometry relative="1" as="geometry">
            <mxPoint x="153" y="375" as="targetPoint" />
            <Array as="points">
              <mxPoint x="154" y="1134" />
            </Array>
          </mxGeometry>
        </mxCell>
        <mxCell id="mvj4oXj6JV9amYfgUnpZ-25" value="&lt;font color=&quot;#ff0000&quot; style=&quot;font-size: 12px;&quot;&gt;error&lt;/font&gt;" style="edgeLabel;html=1;align=center;verticalAlign=bottom;resizable=0;points=[];" parent="mvj4oXj6JV9amYfgUnpZ-9" vertex="1" connectable="0">
          <mxGeometry x="-0.8533" y="4" relative="1" as="geometry">
            <mxPoint x="-1" as="offset" />
          </mxGeometry>
        </mxCell>
        <mxCell id="mvj4oXj6JV9amYfgUnpZ-26" value="&lt;font color=&quot;#ff0000&quot; style=&quot;font-size: 12px;&quot;&gt;error&lt;/font&gt;" style="edgeLabel;html=1;align=center;verticalAlign=bottom;resizable=0;points=[];" parent="mvj4oXj6JV9amYfgUnpZ-9" vertex="1" connectable="0">
          <mxGeometry x="0.7081" y="-3" relative="1" as="geometry">
            <mxPoint x="-1" as="offset" />
          </mxGeometry>
        </mxCell>
        <mxCell id="O6QXdMl-xdjii7lvghlq-61" value="throw delete module resources error" style="rounded=1;whiteSpace=wrap;html=1;strokeColor=#666666;" parent="1" vertex="1">
          <mxGeometry x="-470" y="1866" width="120" height="60" as="geometry" />
        </mxCell>
        <mxCell id="pO3N0vJNKmqMab8EqsSR-1" value="&lt;font color=&quot;#ffffff&quot;&gt;1&lt;/font&gt;" style="ellipse;whiteSpace=wrap;html=1;aspect=fixed;fillColor=#0a6ec7;strokeColor=#0a6ec7;" parent="1" vertex="1">
          <mxGeometry x="-716" y="344" width="24" height="24" as="geometry" />
        </mxCell>
        <mxCell id="pO3N0vJNKmqMab8EqsSR-2" value="&lt;font color=&quot;#ffffff&quot;&gt;2&lt;/font&gt;" style="ellipse;whiteSpace=wrap;html=1;aspect=fixed;fillColor=#0a6ec7;strokeColor=#0a6ec7;" parent="1" vertex="1">
          <mxGeometry x="-685" y="590" width="24" height="24" as="geometry" />
        </mxCell>
        <mxCell id="pO3N0vJNKmqMab8EqsSR-3" value="&lt;font color=&quot;#ffffff&quot;&gt;3&lt;/font&gt;" style="ellipse;whiteSpace=wrap;html=1;aspect=fixed;fillColor=#0a6ec7;strokeColor=#0a6ec7;" parent="1" vertex="1">
          <mxGeometry x="-685" y="863" width="24" height="24" as="geometry" />
        </mxCell>
        <mxCell id="pO3N0vJNKmqMab8EqsSR-4" value="&lt;font color=&quot;#ffffff&quot;&gt;4&lt;/font&gt;" style="ellipse;whiteSpace=wrap;html=1;aspect=fixed;fillColor=#0a6ec7;strokeColor=#0a6ec7;" parent="1" vertex="1">
          <mxGeometry x="-422" y="494" width="24" height="24" as="geometry" />
        </mxCell>
        <mxCell id="pO3N0vJNKmqMab8EqsSR-5" value="&lt;font color=&quot;#ffffff&quot;&gt;4&lt;/font&gt;" style="ellipse;whiteSpace=wrap;html=1;aspect=fixed;fillColor=#0a6ec7;strokeColor=#0a6ec7;" parent="1" vertex="1">
          <mxGeometry x="-455" y="730" width="24" height="24" as="geometry" />
        </mxCell>
        <mxCell id="pO3N0vJNKmqMab8EqsSR-6" value="&lt;font color=&quot;#ffffff&quot;&gt;10&lt;/font&gt;" style="ellipse;whiteSpace=wrap;html=1;aspect=fixed;fillColor=#0a6ec7;strokeColor=#0a6ec7;" parent="1" vertex="1">
          <mxGeometry x="-120" y="627" width="24" height="24" as="geometry" />
        </mxCell>
        <mxCell id="pO3N0vJNKmqMab8EqsSR-7" value="&lt;font color=&quot;#ffffff&quot;&gt;5&lt;/font&gt;" style="ellipse;whiteSpace=wrap;html=1;aspect=fixed;fillColor=#0a6ec7;strokeColor=#0a6ec7;" parent="1" vertex="1">
          <mxGeometry x="-318" y="496" width="24" height="24" as="geometry" />
        </mxCell>
        <mxCell id="pO3N0vJNKmqMab8EqsSR-8" value="&lt;font color=&quot;#ffffff&quot;&gt;11&lt;/font&gt;" style="ellipse;whiteSpace=wrap;html=1;aspect=fixed;fillColor=#0a6ec7;strokeColor=#0a6ec7;" parent="1" vertex="1">
          <mxGeometry x="-685" y="1705" width="24" height="24" as="geometry" />
        </mxCell>
        <mxCell id="pO3N0vJNKmqMab8EqsSR-9" value="&lt;font color=&quot;#ffffff&quot;&gt;6&lt;/font&gt;" style="ellipse;whiteSpace=wrap;html=1;aspect=fixed;fillColor=#0a6ec7;strokeColor=#0a6ec7;" parent="1" vertex="1">
          <mxGeometry x="-318" y="748" width="24" height="24" as="geometry" />
        </mxCell>
        <mxCell id="pO3N0vJNKmqMab8EqsSR-10" value="&lt;font color=&quot;#ffffff&quot;&gt;4&lt;/font&gt;" style="ellipse;whiteSpace=wrap;html=1;aspect=fixed;fillColor=#0a6ec7;strokeColor=#0a6ec7;" parent="1" vertex="1">
          <mxGeometry x="-455" y="1009" width="24" height="24" as="geometry" />
        </mxCell>
        <mxCell id="pO3N0vJNKmqMab8EqsSR-11" value="&lt;font color=&quot;#ffffff&quot;&gt;7&lt;/font&gt;" style="ellipse;whiteSpace=wrap;html=1;aspect=fixed;fillColor=#0a6ec7;strokeColor=#0a6ec7;" parent="1" vertex="1">
          <mxGeometry x="-318" y="1027" width="24" height="24" as="geometry" />
        </mxCell>
        <mxCell id="pO3N0vJNKmqMab8EqsSR-12" value="&lt;font color=&quot;#ffffff&quot;&gt;8&lt;/font&gt;" style="ellipse;whiteSpace=wrap;html=1;aspect=fixed;fillColor=#0a6ec7;strokeColor=#0a6ec7;" parent="1" vertex="1">
          <mxGeometry x="-318" y="1288" width="24" height="24" as="geometry" />
        </mxCell>
        <mxCell id="pO3N0vJNKmqMab8EqsSR-13" value="&lt;font color=&quot;#ffffff&quot;&gt;9&lt;/font&gt;" style="ellipse;whiteSpace=wrap;html=1;aspect=fixed;fillColor=#0a6ec7;strokeColor=#0a6ec7;" parent="1" vertex="1">
          <mxGeometry x="-318" y="1567" width="24" height="24" as="geometry" />
        </mxCell>
        <mxCell id="pO3N0vJNKmqMab8EqsSR-17" value="&lt;font color=&quot;#ffffff&quot;&gt;10&lt;/font&gt;" style="ellipse;whiteSpace=wrap;html=1;aspect=fixed;fillColor=#0a6ec7;strokeColor=#0a6ec7;" parent="1" vertex="1">
          <mxGeometry x="-120" y="899" width="24" height="24" as="geometry" />
        </mxCell>
        <mxCell id="pO3N0vJNKmqMab8EqsSR-18" value="&lt;font color=&quot;#ffffff&quot;&gt;10&lt;/font&gt;" style="ellipse;whiteSpace=wrap;html=1;aspect=fixed;fillColor=#0a6ec7;strokeColor=#0a6ec7;" parent="1" vertex="1">
          <mxGeometry x="-120" y="1164" width="24" height="24" as="geometry" />
        </mxCell>
        <mxCell id="pO3N0vJNKmqMab8EqsSR-19" value="&lt;font color=&quot;#ffffff&quot;&gt;10&lt;/font&gt;" style="ellipse;whiteSpace=wrap;html=1;aspect=fixed;fillColor=#0a6ec7;strokeColor=#0a6ec7;" parent="1" vertex="1">
          <mxGeometry x="-120" y="1438" width="24" height="24" as="geometry" />
        </mxCell>
        <mxCell id="pO3N0vJNKmqMab8EqsSR-20" value="&lt;font color=&quot;#ffffff&quot;&gt;10&lt;/font&gt;" style="ellipse;whiteSpace=wrap;html=1;aspect=fixed;fillColor=#0a6ec7;strokeColor=#0a6ec7;" parent="1" vertex="1">
          <mxGeometry x="-120" y="1706" width="24" height="24" as="geometry" />
        </mxCell>
        <mxCell id="pO3N0vJNKmqMab8EqsSR-21" value="&lt;font color=&quot;#ffffff&quot;&gt;11a&lt;/font&gt;" style="ellipse;whiteSpace=wrap;html=1;aspect=fixed;fillColor=#0a6ec7;strokeColor=#0a6ec7;" parent="1" vertex="1">
          <mxGeometry x="-518" y="1848" width="24" height="24" as="geometry" />
        </mxCell>
      </root>
    </mxGraphModel>
  </diagram>
</mxfile>
